<mxfile host="app.diagrams.net" modified="2023-06-22T07:44:39.808Z" agent="Mozilla/5.0 (Windows NT 10.0; Win64; x64) AppleWebKit/537.36 (KHTML, like Gecko) Chrome/114.0.0.0 Safari/537.36" etag="_ZVNCyJRdGSnQY1l8bek" version="21.5.0" type="github">
  <diagram id="C5RBs43oDa-KdzZeNtuy" name="Page-1">
    <mxGraphModel dx="1114" dy="559" grid="1" gridSize="10" guides="1" tooltips="1" connect="1" arrows="1" fold="1" page="1" pageScale="1" pageWidth="827" pageHeight="1169" math="0" shadow="0">
      <root>
        <mxCell id="WIyWlLk6GJQsqaUBKTNV-0" />
        <mxCell id="WIyWlLk6GJQsqaUBKTNV-1" parent="WIyWlLk6GJQsqaUBKTNV-0" />
        <mxCell id="MIIFelfgQovL3lGz-XYe-3" value="" style="edgeStyle=orthogonalEdgeStyle;rounded=0;orthogonalLoop=1;jettySize=auto;html=1;fontSize=12;startSize=8;endSize=8;" parent="WIyWlLk6GJQsqaUBKTNV-1" source="MIIFelfgQovL3lGz-XYe-0" target="MIIFelfgQovL3lGz-XYe-2" edge="1">
          <mxGeometry relative="1" as="geometry" />
        </mxCell>
        <mxCell id="MIIFelfgQovL3lGz-XYe-0" value="&lt;font style=&quot;font-size: 15px;&quot;&gt;Start&lt;br&gt;PIDActuatorSetValue&lt;/font&gt;" style="ellipse;whiteSpace=wrap;html=1;fontSize=16;" parent="WIyWlLk6GJQsqaUBKTNV-1" vertex="1">
          <mxGeometry x="200" y="30" width="180" height="120" as="geometry" />
        </mxCell>
        <mxCell id="MIIFelfgQovL3lGz-XYe-9" value="" style="edgeStyle=orthogonalEdgeStyle;rounded=0;orthogonalLoop=1;jettySize=auto;html=1;fontSize=12;startSize=8;endSize=8;" parent="WIyWlLk6GJQsqaUBKTNV-1" source="MIIFelfgQovL3lGz-XYe-2" target="MIIFelfgQovL3lGz-XYe-8" edge="1">
          <mxGeometry relative="1" as="geometry">
            <Array as="points">
              <mxPoint x="290" y="430" />
              <mxPoint x="190" y="430" />
            </Array>
          </mxGeometry>
        </mxCell>
        <mxCell id="MIIFelfgQovL3lGz-XYe-12" style="edgeStyle=orthogonalEdgeStyle;rounded=0;orthogonalLoop=1;jettySize=auto;html=1;entryX=0.5;entryY=0;entryDx=0;entryDy=0;fontSize=12;startSize=8;endSize=8;" parent="WIyWlLk6GJQsqaUBKTNV-1" source="MIIFelfgQovL3lGz-XYe-2" target="MIIFelfgQovL3lGz-XYe-11" edge="1">
          <mxGeometry relative="1" as="geometry">
            <Array as="points">
              <mxPoint x="290" y="430" />
              <mxPoint x="370" y="430" />
            </Array>
          </mxGeometry>
        </mxCell>
        <mxCell id="MIIFelfgQovL3lGz-XYe-15" style="edgeStyle=orthogonalEdgeStyle;rounded=0;orthogonalLoop=1;jettySize=auto;html=1;entryX=0.5;entryY=0;entryDx=0;entryDy=0;fontSize=12;startSize=8;endSize=8;" parent="WIyWlLk6GJQsqaUBKTNV-1" source="MIIFelfgQovL3lGz-XYe-2" target="MIIFelfgQovL3lGz-XYe-14" edge="1">
          <mxGeometry relative="1" as="geometry" />
        </mxCell>
        <mxCell id="MIIFelfgQovL3lGz-XYe-2" value="&lt;span style=&quot;font-size: 15px;&quot;&gt;Actuator Value ?&lt;/span&gt;" style="rhombus;whiteSpace=wrap;html=1;fontSize=16;" parent="WIyWlLk6GJQsqaUBKTNV-1" vertex="1">
          <mxGeometry x="210" y="240" width="160" height="110" as="geometry" />
        </mxCell>
        <mxCell id="MIIFelfgQovL3lGz-XYe-18" style="edgeStyle=orthogonalEdgeStyle;rounded=0;orthogonalLoop=1;jettySize=auto;html=1;fontSize=12;startSize=8;endSize=8;" parent="WIyWlLk6GJQsqaUBKTNV-1" source="MIIFelfgQovL3lGz-XYe-8" target="MIIFelfgQovL3lGz-XYe-17" edge="1">
          <mxGeometry relative="1" as="geometry">
            <Array as="points">
              <mxPoint x="190" y="630" />
              <mxPoint x="370" y="630" />
            </Array>
          </mxGeometry>
        </mxCell>
        <mxCell id="MIIFelfgQovL3lGz-XYe-8" value="&lt;font style=&quot;font-size: 15px;&quot;&gt;SetCoolerPWM (-(ActuatorValue + 0.3))&lt;/font&gt;" style="shape=process;whiteSpace=wrap;html=1;backgroundOutline=1;fontSize=16;" parent="WIyWlLk6GJQsqaUBKTNV-1" vertex="1">
          <mxGeometry x="120" y="490" width="140" height="75" as="geometry" />
        </mxCell>
        <mxCell id="MIIFelfgQovL3lGz-XYe-10" value="&amp;lt;0" style="text;html=1;align=center;verticalAlign=middle;resizable=0;points=[];autosize=1;strokeColor=none;fillColor=none;fontSize=16;" parent="WIyWlLk6GJQsqaUBKTNV-1" vertex="1">
          <mxGeometry x="205" y="440" width="40" height="30" as="geometry" />
        </mxCell>
        <mxCell id="MIIFelfgQovL3lGz-XYe-19" style="edgeStyle=orthogonalEdgeStyle;rounded=0;orthogonalLoop=1;jettySize=auto;html=1;fontSize=12;startSize=8;endSize=8;" parent="WIyWlLk6GJQsqaUBKTNV-1" source="MIIFelfgQovL3lGz-XYe-11" target="MIIFelfgQovL3lGz-XYe-17" edge="1">
          <mxGeometry relative="1" as="geometry" />
        </mxCell>
        <mxCell id="MIIFelfgQovL3lGz-XYe-11" value="&lt;font style=&quot;font-size: 15px;&quot;&gt;SetHeaterPWM (ActuatorValue)&lt;/font&gt;" style="shape=process;whiteSpace=wrap;html=1;backgroundOutline=1;fontSize=16;" parent="WIyWlLk6GJQsqaUBKTNV-1" vertex="1">
          <mxGeometry x="300" y="490" width="140" height="75" as="geometry" />
        </mxCell>
        <mxCell id="MIIFelfgQovL3lGz-XYe-13" value="&amp;gt;0" style="text;html=1;align=center;verticalAlign=middle;resizable=0;points=[];autosize=1;strokeColor=none;fillColor=none;fontSize=16;" parent="WIyWlLk6GJQsqaUBKTNV-1" vertex="1">
          <mxGeometry x="394" y="440" width="40" height="30" as="geometry" />
        </mxCell>
        <mxCell id="MIIFelfgQovL3lGz-XYe-20" style="edgeStyle=orthogonalEdgeStyle;rounded=0;orthogonalLoop=1;jettySize=auto;html=1;fontSize=12;startSize=8;endSize=8;" parent="WIyWlLk6GJQsqaUBKTNV-1" source="MIIFelfgQovL3lGz-XYe-14" target="MIIFelfgQovL3lGz-XYe-17" edge="1">
          <mxGeometry relative="1" as="geometry">
            <Array as="points">
              <mxPoint x="550" y="630" />
              <mxPoint x="370" y="630" />
            </Array>
          </mxGeometry>
        </mxCell>
        <mxCell id="MIIFelfgQovL3lGz-XYe-14" value="&lt;span style=&quot;font-size: 15px;&quot;&gt;SetHeaterPWM(0)&lt;br&gt;SetCoolerPWM(0)&lt;br&gt;&lt;/span&gt;" style="shape=process;whiteSpace=wrap;html=1;backgroundOutline=1;fontSize=16;" parent="WIyWlLk6GJQsqaUBKTNV-1" vertex="1">
          <mxGeometry x="470" y="490" width="160" height="70" as="geometry" />
        </mxCell>
        <mxCell id="MIIFelfgQovL3lGz-XYe-16" value="=0" style="text;html=1;align=center;verticalAlign=middle;resizable=0;points=[];autosize=1;strokeColor=none;fillColor=none;fontSize=16;" parent="WIyWlLk6GJQsqaUBKTNV-1" vertex="1">
          <mxGeometry x="580" y="440" width="40" height="30" as="geometry" />
        </mxCell>
        <mxCell id="MIIFelfgQovL3lGz-XYe-17" value="&lt;font style=&quot;font-size: 15px;&quot;&gt;End&lt;br&gt;PIDActuatorSetValue&lt;/font&gt;" style="ellipse;whiteSpace=wrap;html=1;fontSize=16;" parent="WIyWlLk6GJQsqaUBKTNV-1" vertex="1">
          <mxGeometry x="280" y="660" width="180" height="120" as="geometry" />
        </mxCell>
      </root>
    </mxGraphModel>
  </diagram>
</mxfile>
